<svg width="34" height="39" viewBox="0 0 34 39" fill="none" xmlns="http://www.w3.org/2000/svg">
      <path
        fill-rule="evenodd"
        clip-rule="evenodd"
        d="M22 27C22.5306 27 23.0394 27.2108 23.4146 27.5859C23.7897 27.9611 24.0005 28.4699 24.0005 29.0005C24.0005 29.5311 23.7897 30.0399 23.4146 30.4151C23.0394 30.7902 22.5306 31.001 22 31.001C21.4694 31.001 20.9606 30.7902 20.5854 30.4151C20.2103 30.0399 19.9995 29.5311 19.9995 29.0005C19.9995 28.4699 20.2103 27.9611 20.5854 27.5859C20.9606 27.2108 21.4694 27 22 27ZM9.04 17.673C8.188 17.976 7.462 18.3 6.701 18.735C6.068 16.678 5.022 12.722 5.022 9.055C5.022 5.406 6.168 3.745 7.232 3.745C8.726 3.745 9.04 6.632 9.04 9.055V17.673ZM6 31C5.46957 31 4.96086 30.7893 4.58579 30.4142C4.21071 30.0391 4 29.5304 4 29C4 28.4696 4.21071 27.9609 4.58579 27.5858C4.96086 27.2107 5.46957 27 6 27C6.53043 27.0003 7.03904 27.2112 7.41392 27.5865C7.78881 27.9618 7.99927 28.4706 7.999 29.001C7.99874 29.5314 7.78777 30.04 7.41251 30.4149C7.03725 30.7898 6.52843 31.0003 5.998 31H6ZM30.924 18.4C27.926 14.746 23.344 11.909 23.344 11.909C23.344 11.909 21.636 11 20.267 11C19.975 11 19.71 11.064 19.468 11.166C17.388 11.554 15.718 13.828 15.244 16.81C14.862 16.78 14.478 16.756 14.089 16.756C13.404 16.756 12.713 16.857 12.054 16.946V9.055C12.054 2.68 9.896 0.75 7.233 0.75C4.571 0.75 2.008 3.21 2.008 9.055C2.008 13.785 3.535 18.811 4.118 20.553C1.584 22.806 0 25.852 0 28.888C0 37 6.307 39 14.089 39C21.869 39 28.177 37 28.177 28.888C28.177 28.284 28.1 27.684 27.982 27.088C26.815 26.455 25.591 25.362 24.288 23.769L19.314 17.7C18.6499 17.4591 17.9699 17.2644 17.279 17.117C17.7299 16.5169 18.242 15.9652 18.807 15.471C18.827 15.496 18.831 15.525 18.849 15.549L25.069 23.137C27.221 25.766 28.932 26.742 30.29 26.742C30.994 26.742 31.603 26.482 32.13 26.054C33.682 24.798 33.914 22.054 30.923 18.4H30.924Z"
        fill="#EEEEEE"
      />
    </svg>
